# xmcd CD database file
#
# Track frame offsets:
#	150
#	2249
#	36080
#	37764
#	60401
#	81766
#	85105
#	105164
#	124024
#	127289
#	143474
#	147606
#	168579
#	171413
#	193997
#	197867
#	213798
#	216701
#	235395
#	250968
#	272018
#
# Disc length: 3658 seconds
#
# Revision: 6
# Processed by: cddbd v1.4PL0 Copyright (c) Steve Scherf et al.
# Submitted via: CDex 1.50beta10
#
DISCID=370e4815
DTITLE=Deltron 3030 - Deltron 3030
DYEAR=2001
DGENRE=Hip-Hop
TTITLE0=State of the Nation
TTITLE1=3030
TTITLE2=The Fantabulous Rap Extravaganza
TTITLE3=Things You Can Do
TTITLE4=Positive Contact
TTITLE5=St. Catherine St.
TTITLE6=Virus
TTITLE7=Upgrade (A Brymar College Course)
TTITLE8=New Coke
TTITLE9=Mastermind
TTITLE10=National Movie Review
TTITLE11=Madness
TTITLE12=Meet Cleofis Randolph The Patriach
TTITLE13=Time Keeps On Slipping
TTITLE14=The News (A Wholly Owned Subsidiary of Microsoft Inc.)
TTITLE15=Turbulence (Remix)
TTITLE16=The Fantabulous Rap Extravaganza Part II
TTITLE17=Battlesong
TTITLE18=Love Song
TTITLE19=Memory Loss
TTITLE20=The Assman 640 Speaks
EXTD=indexed YEAR: 2001
EXTT0=
EXTT1=
EXTT2=
EXTT3=
EXTT4=
EXTT5=
EXTT6=
EXTT7=
EXTT8=
EXTT9=
EXTT10=
EXTT11=
EXTT12=
EXTT13=
EXTT14=
EXTT15=
EXTT16=
EXTT17=
EXTT18=
EXTT19=
EXTT20=
PLAYORDER=
